<mxfile host="65bd71144e">
    <diagram id="6EdcWHPuBUTrfilaugjj" name="Page-1">
        <mxGraphModel dx="832" dy="335" grid="1" gridSize="10" guides="1" tooltips="1" connect="1" arrows="1" fold="1" page="1" pageScale="1" pageWidth="850" pageHeight="1100" math="0" shadow="0">
            <root>
                <mxCell id="0"/>
                <mxCell id="1" parent="0"/>
                <mxCell id="2" value="" style="swimlane;html=1;childLayout=stackLayout;resizeParent=1;resizeParentMax=0;horizontal=0;startSize=0;horizontalStack=0;" parent="1" vertex="1">
                    <mxGeometry x="195" y="40" width="1030" height="400" as="geometry"/>
                </mxCell>
                <mxCell id="7" value="User" style="swimlane;html=1;startSize=20;horizontal=0;" parent="2" vertex="1">
                    <mxGeometry width="1030" height="120" as="geometry"/>
                </mxCell>
                <mxCell id="42" value="Get Follow up lab result" style="rounded=0;whiteSpace=wrap;html=1;fontFamily=Helvetica;fontSize=12;fontColor=#000000;align=center;" parent="7" vertex="1">
                    <mxGeometry x="455" y="30" width="80" height="60" as="geometry"/>
                </mxCell>
                <mxCell id="63" value="Receive SMS" style="rounded=0;whiteSpace=wrap;html=1;fontFamily=Helvetica;fontSize=12;fontColor=#000000;align=center;" parent="7" vertex="1">
                    <mxGeometry x="915" y="30" width="80" height="60" as="geometry"/>
                </mxCell>
                <mxCell id="22" value="Ops Team" style="swimlane;html=1;startSize=20;horizontal=0;" parent="2" vertex="1">
                    <mxGeometry y="120" width="1030" height="160" as="geometry"/>
                </mxCell>
                <mxCell id="31" style="edgeStyle=none;html=1;exitX=1;exitY=0.5;exitDx=0;exitDy=0;entryX=0;entryY=0.5;entryDx=0;entryDy=0;fontSize=10;fontColor=#FFFFFF;" parent="22" source="24" target="30" edge="1">
                    <mxGeometry relative="1" as="geometry"/>
                </mxCell>
                <mxCell id="24" value="Process Follow up labs tickets" style="rounded=0;whiteSpace=wrap;html=1;fontFamily=Helvetica;fontSize=12;fontColor=#000000;align=center;" parent="22" vertex="1">
                    <mxGeometry x="255" y="30" width="80" height="60" as="geometry"/>
                </mxCell>
                <mxCell id="52" style="edgeStyle=orthogonalEdgeStyle;html=1;exitX=1;exitY=0.5;exitDx=0;exitDy=0;entryX=0;entryY=0.5;entryDx=0;entryDy=0;fontSize=10;fontColor=#FFFFFF;" parent="22" source="30" edge="1">
                    <mxGeometry relative="1" as="geometry">
                        <mxPoint x="485" y="60" as="targetPoint"/>
                    </mxGeometry>
                </mxCell>
                <mxCell id="30" value="Schedule Teleconsult" style="rounded=0;whiteSpace=wrap;html=1;fontFamily=Helvetica;fontSize=12;fontColor=#000000;align=center;" parent="22" vertex="1">
                    <mxGeometry x="375" y="30" width="80" height="60" as="geometry"/>
                </mxCell>
                <mxCell id="36" style="edgeStyle=orthogonalEdgeStyle;html=1;exitX=1;exitY=0.5;exitDx=0;exitDy=0;entryX=0;entryY=0.5;entryDx=0;entryDy=0;fontSize=10;fontColor=#FFFFFF;" parent="22" source="34" target="35" edge="1">
                    <mxGeometry relative="1" as="geometry"/>
                </mxCell>
                <mxCell id="34" value="Sync data" style="rounded=0;whiteSpace=wrap;html=1;fontFamily=Helvetica;fontSize=12;fontColor=#000000;align=center;" parent="22" vertex="1">
                    <mxGeometry x="55" y="30" width="80" height="60" as="geometry"/>
                </mxCell>
                <mxCell id="38" style="edgeStyle=orthogonalEdgeStyle;html=1;exitX=1;exitY=0.5;exitDx=0;exitDy=0;entryX=0;entryY=0.5;entryDx=0;entryDy=0;fontSize=10;fontColor=#FFFFFF;" parent="22" source="35" target="24" edge="1">
                    <mxGeometry relative="1" as="geometry"/>
                </mxCell>
                <mxCell id="35" value="Update Cancelled Medicines" style="rounded=0;whiteSpace=wrap;html=1;fontFamily=Helvetica;fontSize=12;fontColor=#000000;align=center;" parent="22" vertex="1">
                    <mxGeometry x="155" y="30" width="80" height="60" as="geometry"/>
                </mxCell>
                <mxCell id="60" style="edgeStyle=orthogonalEdgeStyle;html=1;exitX=1;exitY=0.5;exitDx=0;exitDy=0;fontSize=10;fontColor=#FFFFFF;" parent="22" source="53" target="54" edge="1">
                    <mxGeometry relative="1" as="geometry"/>
                </mxCell>
                <mxCell id="67" value="&lt;font color=&quot;#000000&quot;&gt;No&lt;/font&gt;" style="edgeLabel;html=1;align=center;verticalAlign=middle;resizable=0;points=[];fontSize=10;fontColor=#FFFFFF;" parent="60" vertex="1" connectable="0">
                    <mxGeometry x="-0.3054" relative="1" as="geometry">
                        <mxPoint as="offset"/>
                    </mxGeometry>
                </mxCell>
                <mxCell id="68" style="edgeStyle=orthogonalEdgeStyle;html=1;exitX=0.5;exitY=1;exitDx=0;exitDy=0;entryX=0.5;entryY=1;entryDx=0;entryDy=0;fontSize=10;fontColor=#FFFFFF;" parent="22" source="53" target="59" edge="1">
                    <mxGeometry relative="1" as="geometry">
                        <Array as="points">
                            <mxPoint x="523" y="120"/>
                            <mxPoint x="735" y="120"/>
                        </Array>
                    </mxGeometry>
                </mxCell>
                <mxCell id="69" value="&lt;font color=&quot;#000000&quot;&gt;Yes&lt;/font&gt;" style="edgeLabel;html=1;align=center;verticalAlign=middle;resizable=0;points=[];fontSize=10;fontColor=#FFFFFF;" parent="68" vertex="1" connectable="0">
                    <mxGeometry x="-0.0213" y="-1" relative="1" as="geometry">
                        <mxPoint as="offset"/>
                    </mxGeometry>
                </mxCell>
                <mxCell id="53" value="&lt;font style=&quot;font-size: 10px;&quot;&gt;Eligible for Refill?&lt;/font&gt;" style="rhombus;whiteSpace=wrap;html=1;fontFamily=Helvetica;fontSize=12;fontColor=#000000;align=center;" parent="22" vertex="1">
                    <mxGeometry x="485" y="30" width="75" height="60" as="geometry"/>
                </mxCell>
                <mxCell id="54" value="Generate SMS" style="rounded=0;whiteSpace=wrap;html=1;fontFamily=Helvetica;fontSize=12;fontColor=#000000;align=center;" parent="22" vertex="1">
                    <mxGeometry x="595" y="30" width="80" height="60" as="geometry"/>
                </mxCell>
                <mxCell id="58" style="edgeStyle=orthogonalEdgeStyle;html=1;exitX=1;exitY=0.5;exitDx=0;exitDy=0;entryX=0;entryY=0.5;entryDx=0;entryDy=0;fontSize=10;fontColor=#FFFFFF;" parent="22" source="55" edge="1">
                    <mxGeometry relative="1" as="geometry">
                        <mxPoint x="915" y="60" as="targetPoint"/>
                    </mxGeometry>
                </mxCell>
                <mxCell id="55" value="Audit Delivery Receipts" style="rounded=0;whiteSpace=wrap;html=1;fontFamily=Helvetica;fontSize=12;fontColor=#000000;align=center;" parent="22" vertex="1">
                    <mxGeometry x="805" y="30" width="80" height="60" as="geometry"/>
                </mxCell>
                <mxCell id="62" style="edgeStyle=orthogonalEdgeStyle;html=1;exitX=1;exitY=0.5;exitDx=0;exitDy=0;entryX=0;entryY=0.5;entryDx=0;entryDy=0;fontSize=10;fontColor=#FFFFFF;" parent="22" source="59" target="55" edge="1">
                    <mxGeometry relative="1" as="geometry"/>
                </mxCell>
                <mxCell id="59" value="Generate Delivery Receipts and SMS" style="rounded=0;whiteSpace=wrap;html=1;fontFamily=Helvetica;fontSize=12;fontColor=#000000;align=center;" parent="22" vertex="1">
                    <mxGeometry x="695" y="30" width="80" height="60" as="geometry"/>
                </mxCell>
                <mxCell id="50" style="edgeStyle=orthogonalEdgeStyle;html=1;exitX=0.5;exitY=0;exitDx=0;exitDy=0;entryX=0.5;entryY=0;entryDx=0;entryDy=0;fontSize=10;fontColor=#FFFFFF;" parent="2" source="42" target="34" edge="1">
                    <mxGeometry relative="1" as="geometry"/>
                </mxCell>
                <mxCell id="70" style="edgeStyle=orthogonalEdgeStyle;html=1;exitX=0.5;exitY=0;exitDx=0;exitDy=0;fontSize=10;fontColor=#FFFFFF;entryX=0;entryY=0.5;entryDx=0;entryDy=0;" parent="2" source="54" target="63" edge="1">
                    <mxGeometry relative="1" as="geometry">
                        <mxPoint x="875" y="30" as="targetPoint"/>
                    </mxGeometry>
                </mxCell>
                <mxCell id="14" value="System" style="swimlane;html=1;startSize=20;horizontal=0;" parent="2" vertex="1">
                    <mxGeometry y="280" width="1030" height="120" as="geometry"/>
                </mxCell>
                <mxCell id="73" value="Get members due for refill" style="rounded=0;whiteSpace=wrap;html=1;fontFamily=Helvetica;fontSize=12;fontColor=#000000;align=center;" parent="14" vertex="1">
                    <mxGeometry x="55" y="30" width="80" height="60" as="geometry"/>
                </mxCell>
                <mxCell id="26" value="&lt;font style=&quot;font-size: 10px;&quot;&gt;Has Valid Lab Results?&lt;/font&gt;" style="rhombus;whiteSpace=wrap;html=1;fontFamily=Helvetica;fontSize=12;fontColor=#000000;align=center;" parent="14" vertex="1">
                    <mxGeometry x="257.5" y="30" width="75" height="60" as="geometry"/>
                </mxCell>
                <mxCell id="74" style="edgeStyle=orthogonalEdgeStyle;html=1;exitX=0.5;exitY=0;exitDx=0;exitDy=0;entryX=0.5;entryY=1;entryDx=0;entryDy=0;fontSize=10;fontColor=#FFFFFF;endArrow=classic;endFill=1;" parent="2" source="73" target="34" edge="1">
                    <mxGeometry relative="1" as="geometry"/>
                </mxCell>
                <mxCell id="75" style="edgeStyle=orthogonalEdgeStyle;html=1;exitX=0.5;exitY=1;exitDx=0;exitDy=0;entryX=0.5;entryY=0;entryDx=0;entryDy=0;fontSize=10;fontColor=#FFFFFF;endArrow=classic;endFill=1;" parent="2" source="24" target="26" edge="1">
                    <mxGeometry relative="1" as="geometry"/>
                </mxCell>
                <mxCell id="77" style="edgeStyle=orthogonalEdgeStyle;html=1;exitX=1;exitY=0;exitDx=0;exitDy=0;entryX=0.5;entryY=1;entryDx=0;entryDy=0;fontSize=10;fontColor=#FFFFFF;endArrow=classic;endFill=1;" parent="2" source="26" target="30" edge="1">
                    <mxGeometry relative="1" as="geometry"/>
                </mxCell>
                <mxCell id="78" value="&lt;font color=&quot;#000000&quot;&gt;Yes&lt;/font&gt;" style="edgeLabel;html=1;align=center;verticalAlign=middle;resizable=0;points=[];fontSize=10;fontColor=#FFFFFF;" parent="77" vertex="1" connectable="0">
                    <mxGeometry x="-0.4096" relative="1" as="geometry">
                        <mxPoint as="offset"/>
                    </mxGeometry>
                </mxCell>
                <mxCell id="46" style="edgeStyle=orthogonalEdgeStyle;html=1;exitX=1;exitY=0.5;exitDx=0;exitDy=0;entryX=0.163;entryY=1.05;entryDx=0;entryDy=0;fontSize=10;fontColor=#FFFFFF;endArrow=classic;endFill=1;entryPerimeter=0;" parent="2" source="26" target="42" edge="1">
                    <mxGeometry relative="1" as="geometry">
                        <mxPoint x="455" y="60" as="targetPoint"/>
                    </mxGeometry>
                </mxCell>
                <mxCell id="47" value="&lt;font color=&quot;#000000&quot;&gt;No&lt;/font&gt;" style="edgeLabel;html=1;align=center;verticalAlign=middle;resizable=0;points=[];fontSize=10;fontColor=#FFFFFF;" parent="46" vertex="1" connectable="0">
                    <mxGeometry x="-0.1793" relative="1" as="geometry">
                        <mxPoint as="offset"/>
                    </mxGeometry>
                </mxCell>
                <mxCell id="71" value="Print Delivery Receipts and turnover to Supply Chain" style="rounded=0;whiteSpace=wrap;html=1;fontFamily=Helvetica;fontSize=12;fontColor=#000000;align=center;" parent="1" vertex="1">
                    <mxGeometry x="1110" y="190" width="80" height="60" as="geometry"/>
                </mxCell>
                <mxCell id="79" style="edgeStyle=orthogonalEdgeStyle;html=1;exitX=0.5;exitY=0;exitDx=0;exitDy=0;fontSize=10;fontColor=#000000;endArrow=none;endFill=0;" parent="1" source="59" edge="1">
                    <mxGeometry relative="1" as="geometry">
                        <mxPoint x="930.3333333333335" y="100" as="targetPoint"/>
                    </mxGeometry>
                </mxCell>
            </root>
        </mxGraphModel>
    </diagram>
</mxfile>